<svg width="46" height="45" viewBox="0 0 46 45" fill="none" xmlns="http://www.w3.org/2000/svg">
<path d="M2.54168 50.8333C1.82154 50.8333 1.21747 50.5893 0.729467 50.1013C0.241467 49.6133 -0.00168565 49.0101 8.7947e-06 48.2917V35.5833C8.7947e-06 34.1854 0.498176 32.9883 1.49451 31.992C2.49084 30.9956 3.68712 30.4983 5.08334 30.5V20.3333C5.08334 18.9354 5.58151 17.7383 6.57784 16.742C7.57418 15.7456 8.77045 15.2483 10.1667 15.25H20.3333V11.5646C19.5708 11.0563 18.9566 10.442 18.4906 9.72187C18.0247 9.00174 17.7917 8.13333 17.7917 7.11667C17.7917 6.48125 17.9188 5.856 18.1729 5.24092C18.4271 4.62583 18.8083 4.06497 19.3167 3.55833L22.875 0L26.4333 3.55833C26.9417 4.06667 27.3229 4.62753 27.5771 5.24092C27.8313 5.85431 27.9583 6.47956 27.9583 7.11667C27.9583 8.13333 27.7254 9.00174 27.2594 9.72187C26.7934 10.442 26.1792 11.0563 25.4167 11.5646V15.25H35.5833C36.9813 15.25 38.1784 15.7473 39.1747 16.742C40.1711 17.7366 40.6684 18.9337 40.6667 20.3333V30.5C42.0646 30.5 43.2617 30.9982 44.2581 31.9945C45.2544 32.9908 45.7517 34.1871 45.75 35.5833V48.2917C45.75 49.0118 45.506 49.6159 45.018 50.1039C44.53 50.5919 43.9268 50.835 43.2083 50.8333H2.54168ZM10.1667 30.5H35.5833V20.3333H10.1667V30.5ZM5.08334 45.75H40.6667V35.5833H5.08334V45.75Z" fill="black"/>
</svg>
