<svg width="68" height="54" viewBox="0 0 68 54" fill="none" xmlns="http://www.w3.org/2000/svg">
<path d="M9.9153 15.6293C9.91586 12.9345 10.6115 10.2857 11.9347 7.93986C13.2579 5.59399 15.1637 3.63073 17.4673 2.24062C19.7708 0.850505 22.3938 0.080736 25.0817 0.00601248C27.7696 -0.0687111 30.4311 0.554149 32.808 1.81415C35.1849 3.07415 37.1964 4.9285 38.6473 7.19724C40.0982 9.46599 40.9393 12.0721 41.089 14.7626C41.2386 17.4532 40.6917 20.1368 39.5013 22.5531C38.3109 24.9693 36.5174 27.0362 34.295 28.5531C39.081 30.3123 43.2322 33.4666 46.2144 37.61C49.1965 41.7535 50.8731 46.6965 51.0284 51.8029C51.0218 52.3535 50.8031 52.8802 50.4182 53.273C50.0332 53.6658 49.5116 53.8943 48.9624 53.9109C48.4133 53.9274 47.879 53.7306 47.4712 53.3616C47.0634 52.9926 46.8137 52.48 46.7741 51.9308C46.6052 46.3925 44.2912 41.1377 40.3223 37.2801C36.3535 33.4224 31.0418 31.2649 25.5128 31.2649C19.9838 31.2649 14.6721 33.4224 10.7033 37.2801C6.73443 41.1377 4.42037 46.3925 4.25148 51.9308C4.22308 52.4874 3.97829 53.0108 3.56955 53.3887C3.1608 53.7666 2.62062 53.9691 2.06472 53.9528C1.50881 53.9364 0.981409 53.7025 0.59549 53.3012C0.20957 52.8999 -0.00416889 52.3631 6.16237e-05 51.8058C0.154778 46.6989 1.83111 41.7552 4.81328 37.6112C7.79545 33.4672 11.947 30.3125 16.7334 28.5531C14.6314 27.1196 12.9111 25.1925 11.7227 22.9398C10.5343 20.6872 9.91379 18.1774 9.9153 15.6293ZM25.5142 4.26016C22.5054 4.26016 19.6199 5.45797 17.4923 7.59009C15.3648 9.72221 14.1696 12.614 14.1696 15.6293C14.1696 18.6445 15.3648 21.5363 17.4923 23.6684C19.6199 25.8006 22.5054 26.9984 25.5142 26.9984C28.523 26.9984 31.4086 25.8006 33.5361 23.6684C35.6637 21.5363 36.8589 18.6445 36.8589 15.6293C36.8589 12.614 35.6637 9.72221 33.5361 7.59009C31.4086 5.45797 28.523 4.26016 25.5142 4.26016ZM49.026 15.6293C48.6063 15.6293 48.1979 15.6577 47.7952 15.7145C47.514 15.765 47.2255 15.7582 46.947 15.6945C46.6685 15.6308 46.4057 15.5116 46.1742 15.3439C45.9427 15.1762 45.7472 14.9635 45.5995 14.7184C45.4518 14.4734 45.3549 14.2011 45.3145 13.9177C45.2741 13.6343 45.2911 13.3456 45.3644 13.069C45.4377 12.7923 45.5659 12.5332 45.7413 12.3073C45.9167 12.0813 46.1357 11.8931 46.3853 11.7538C46.6348 11.6145 46.9098 11.5271 47.1939 11.4966C50.0147 11.0879 52.891 11.6307 55.3702 13.0397C57.8494 14.4487 59.7907 16.6439 60.8886 19.2797C61.9865 21.9155 62.1787 24.8423 61.435 27.5996C60.6912 30.3569 59.0537 32.7881 56.7801 34.5105C60.1222 36.0102 62.9599 38.4471 64.9508 41.5271C66.9416 44.607 68.0006 48.1986 68 51.8683C68 52.4337 67.7759 52.9759 67.377 53.3756C66.9781 53.7754 66.437 54 65.8729 54C65.3087 54 64.7677 53.7754 64.3688 53.3756C63.9699 52.9759 63.7458 52.4337 63.7458 51.8683C63.7454 48.6967 62.7257 45.6096 60.8377 43.0643C58.9496 40.519 56.2937 38.6508 53.2633 37.7365L51.7488 37.2817V32.5181L52.9116 31.924C54.6353 31.049 56.0144 29.6174 56.8264 27.8603C57.6383 26.1031 57.8357 24.1231 57.3866 22.2397C56.9375 20.3564 55.8682 18.6796 54.3512 17.4802C52.8343 16.2808 50.9583 15.6287 49.026 15.6293Z" fill="black"/>
</svg>
