<svg width="62" height="67" viewBox="0 0 62 67" fill="none" xmlns="http://www.w3.org/2000/svg">
<path d="M56.625 5.25H48.9375V2.6875C48.9375 2.00788 48.6675 1.3561 48.187 0.875539C47.7064 0.394977 47.0546 0.125 46.375 0.125C45.6954 0.125 45.0436 0.394977 44.563 0.875539C44.0825 1.3561 43.8125 2.00788 43.8125 2.6875V5.25H18.1875V2.6875C18.1875 2.00788 17.9175 1.3561 17.437 0.875539C16.9564 0.394977 16.3046 0.125 15.625 0.125C14.9454 0.125 14.2936 0.394977 13.813 0.875539C13.3325 1.3561 13.0625 2.00788 13.0625 2.6875V5.25H5.375C4.01577 5.25 2.7122 5.78995 1.75108 6.75108C0.789954 7.7122 0.25 9.01577 0.25 10.375V61.625C0.25 62.9842 0.789954 64.2878 1.75108 65.2489C2.7122 66.21 4.01577 66.75 5.375 66.75H56.625C57.9842 66.75 59.2878 66.21 60.2489 65.2489C61.21 64.2878 61.75 62.9842 61.75 61.625V10.375C61.75 9.01577 61.21 7.7122 60.2489 6.75108C59.2878 5.78995 57.9842 5.25 56.625 5.25ZM13.0625 10.375V12.9375C13.0625 13.6171 13.3325 14.2689 13.813 14.7495C14.2936 15.23 14.9454 15.5 15.625 15.5C16.3046 15.5 16.9564 15.23 17.437 14.7495C17.9175 14.2689 18.1875 13.6171 18.1875 12.9375V10.375H43.8125V12.9375C43.8125 13.6171 44.0825 14.2689 44.563 14.7495C45.0436 15.23 45.6954 15.5 46.375 15.5C47.0546 15.5 47.7064 15.23 48.187 14.7495C48.6675 14.2689 48.9375 13.6171 48.9375 12.9375V10.375H56.625V20.625H5.375V10.375H13.0625ZM56.625 61.625H5.375V25.75H56.625V61.625ZM25.875 33.4375V53.9375C25.875 54.6171 25.605 55.2689 25.1245 55.7495C24.6439 56.23 23.9921 56.5 23.3125 56.5C22.6329 56.5 21.9811 56.23 21.5005 55.7495C21.02 55.2689 20.75 54.6171 20.75 53.9375V37.5823L19.3342 38.2934C18.726 38.5976 18.0218 38.6476 17.3766 38.4326C16.7315 38.2175 16.1982 37.755 15.8941 37.1467C15.5899 36.5385 15.5399 35.8343 15.7549 35.1891C15.97 34.544 16.4325 34.0107 17.0408 33.7066L22.1658 31.1441C22.5566 30.9485 22.9909 30.8561 23.4275 30.8757C23.8641 30.8954 24.2884 31.0263 24.6601 31.2561C25.0318 31.486 25.3386 31.807 25.5512 32.1888C25.7639 32.5706 25.8753 33.0005 25.875 33.4375ZM44.8247 43.191L38.6875 51.375H43.8125C44.4921 51.375 45.1439 51.645 45.6245 52.1255C46.105 52.6061 46.375 53.2579 46.375 53.9375C46.375 54.6171 46.105 55.2689 45.6245 55.7495C45.1439 56.23 44.4921 56.5 43.8125 56.5H33.5625C33.0866 56.5 32.6201 56.3675 32.2153 56.1173C31.8105 55.8671 31.4834 55.5091 31.2705 55.0835C31.0577 54.6578 30.9676 54.1813 31.0104 53.7074C31.0531 53.2334 31.227 52.7807 31.5125 52.4L40.7311 40.1096C40.9408 39.8305 41.0912 39.5114 41.1732 39.172C41.2551 38.8327 41.2668 38.4801 41.2076 38.136C41.1484 37.792 41.0195 37.4636 40.8289 37.1712C40.6382 36.8787 40.3898 36.6283 40.0988 36.4353C39.8079 36.2423 39.4806 36.1107 39.137 36.0488C38.7934 35.9868 38.4408 35.9957 38.1008 36.0749C37.7608 36.1542 37.4405 36.302 37.1597 36.5095C36.8789 36.7169 36.6434 36.9795 36.4677 37.2812C36.3044 37.582 36.0826 37.8469 35.8152 38.0605C35.5479 38.2741 35.2404 38.432 34.9111 38.5248C34.5817 38.6177 34.2371 38.6436 33.8976 38.6011C33.558 38.5586 33.2304 38.4485 32.9341 38.2774C32.6378 38.1062 32.3788 37.8774 32.1723 37.6046C31.9658 37.3317 31.8161 37.0202 31.732 36.6885C31.6479 36.3568 31.631 36.0116 31.6824 35.6733C31.7338 35.335 31.8525 35.0105 32.0314 34.7188C32.8779 33.2539 34.1839 32.1092 35.7471 31.4621C37.3102 30.815 39.0432 30.7016 40.6774 31.1396C42.3115 31.5775 43.7556 32.5422 44.7857 33.8843C45.8158 35.2263 46.3744 36.8707 46.375 38.5625C46.3804 40.2337 45.8356 41.8602 44.8247 43.191Z" fill="black"/>
</svg>
