<svg width="61" height="61" viewBox="0 0 61 61" fill="none" xmlns="http://www.w3.org/2000/svg">
<g clip-path="url(#clip0_324_140)">
<path d="M30.5 61C22.4109 61 14.6531 57.7866 8.93324 52.0668C3.21338 46.3469 0 38.5891 0 30.5C0 22.4109 3.21338 14.6531 8.93324 8.93324C14.6531 3.21338 22.4109 0 30.5 0C38.5891 0 46.3469 3.21338 52.0668 8.93324C57.7866 14.6531 61 22.4109 61 30.5C61 38.5891 57.7866 46.3469 52.0668 52.0668C46.3469 57.7866 38.5891 61 30.5 61ZM30.5 54.9C36.9713 54.9 43.1775 52.3293 47.7534 47.7534C52.3293 43.1775 54.9 36.9713 54.9 30.5C54.9 24.0287 52.3293 17.8225 47.7534 13.2466C43.1775 8.67071 36.9713 6.1 30.5 6.1C24.0287 6.1 17.8225 8.67071 13.2466 13.2466C8.67071 17.8225 6.1 24.0287 6.1 30.5C6.1 36.9713 8.67071 43.1775 13.2466 47.7534C17.8225 52.3293 24.0287 54.9 30.5 54.9ZM27.45 31.7505V12.2H33.55V29.2495L45.5975 41.297L41.297 45.5975L27.45 31.7505Z" fill="black"/>
</g>
<defs>
<clipPath id="clip0_324_140">
<rect width="61" height="61" fill="white"/>
</clipPath>
</defs>
</svg>
